<svg width="30" height="30" viewBox="0 0 30 30" fill="none" xmlns="http://www.w3.org/2000/svg">
<g clip-path="url(#clip0_267_1435)">
<path d="M0 24.7059V23.2941C0 22.2941 0.21699 21.3753 0.650971 20.5376C1.08495 19.7 1.68487 19.06 2.45072 18.6176C3.90583 17.7647 5.41864 17.0882 6.98914 16.5882C8.55964 16.0882 10.1613 15.8382 11.7941 15.8382C12.1515 15.8382 12.4323 16.0224 12.6365 16.3906C12.8407 16.7588 12.879 17.1482 12.7514 17.5588C12.5982 18.1765 12.4833 18.7941 12.4068 19.4118C12.3302 20.0294 12.2919 20.6618 12.2919 21.3088C12.2919 22.1618 12.3685 22.9853 12.5216 23.7794C12.6748 24.5735 12.8918 25.3529 13.1726 26.1176C13.3768 26.6176 13.3579 27.0959 13.1159 27.5523C12.8739 28.0088 12.5354 28.2365 12.1004 28.2353H3.0634C2.22096 28.2353 1.50004 27.89 0.900638 27.1994C0.301234 26.5088 0.00102113 25.6776 0 24.7059ZM22.9755 24.7059C23.8179 24.7059 24.5393 24.3606 25.1398 23.67C25.7402 22.9794 26.0399 22.1482 26.0389 21.1765C26.0378 20.2047 25.7381 19.3741 25.1398 18.6847C24.5414 17.9953 23.8199 17.6494 22.9755 17.6471C22.131 17.6447 21.4101 17.9906 20.8127 18.6847C20.2153 19.3788 19.9151 20.2094 19.9121 21.1765C19.909 22.1435 20.2092 22.9747 20.8127 23.67C21.4162 24.3653 22.1371 24.7106 22.9755 24.7059ZM12.2536 14.1176C10.5687 14.1176 9.12637 13.4265 7.92654 12.0441C6.72671 10.6618 6.12679 9 6.12679 7.05882C6.12679 5.11765 6.72671 3.45588 7.92654 2.07353C9.12637 0.691177 10.5687 0 12.2536 0C13.9384 0 15.3808 0.691177 16.5806 2.07353C17.7805 3.45588 18.3804 5.11765 18.3804 7.05882C18.3804 9 17.7805 10.6618 16.5806 12.0441C15.3808 13.4265 13.9384 14.1176 12.2536 14.1176ZM21.214 28.5882L20.9843 27.3529C20.6779 27.2059 20.391 27.0518 20.1234 26.8906C19.8559 26.7294 19.5812 26.5306 19.2994 26.2941L18.1889 26.6912C17.857 26.8088 17.5318 26.7941 17.2132 26.6471C16.8946 26.5 16.6455 26.2647 16.4657 25.9412L16.1594 25.3235C15.9807 24.9706 15.9169 24.5882 15.9679 24.1765C16.019 23.7647 16.1849 23.4265 16.4657 23.1618L17.3082 22.3235C17.2571 21.9118 17.2316 21.5294 17.2316 21.1765C17.2316 20.8235 17.2571 20.4412 17.3082 20.0294L16.4657 19.1912C16.1849 18.9265 16.019 18.5953 15.9679 18.1976C15.9169 17.8 15.9807 17.4253 16.1594 17.0735L16.504 16.4118C16.6827 16.0882 16.9253 15.8529 17.2316 15.7059C17.5379 15.5588 17.857 15.5441 18.1889 15.6618L19.2994 16.0588C19.5802 15.8235 19.8549 15.6247 20.1234 15.4623C20.392 15.3 20.6789 15.1459 20.9843 15L21.214 13.7206C21.2906 13.3088 21.4632 12.9782 21.7317 12.7288C22.0003 12.4794 22.3127 12.3541 22.6691 12.3529H23.2818C23.6392 12.3529 23.9522 12.4853 24.2207 12.75C24.4893 13.0147 24.6614 13.3529 24.7369 13.7647L24.9667 15C25.273 15.1471 25.5599 15.3088 25.8275 15.4853C26.095 15.6618 26.3697 15.8823 26.6515 16.1471L27.6854 15.75C28.0428 15.6029 28.3875 15.6029 28.7193 15.75C29.0512 15.8971 29.3065 16.1471 29.4852 16.5L29.7915 17.1176C29.9702 17.4706 30.034 17.8529 29.983 18.2647C29.9319 18.6765 29.766 19.0147 29.4852 19.2794L28.6427 20.1176C28.6938 20.4706 28.7193 20.8382 28.7193 21.2206C28.7193 21.6029 28.6938 21.9706 28.6427 22.3235L29.4852 23.1618C29.766 23.4265 29.9319 23.7576 29.983 24.1553C30.034 24.5529 29.9702 24.9276 29.7915 25.2794L29.4469 25.9412C29.2682 26.2647 29.0257 26.5 28.7193 26.6471C28.413 26.7941 28.0939 26.8088 27.762 26.6912L26.6515 26.2941C26.3707 26.5294 26.096 26.7276 25.8275 26.8888C25.5589 27.05 25.272 27.2047 24.9667 27.3529L24.7369 28.6323C24.6603 29.0441 24.4883 29.3753 24.2207 29.6259C23.9532 29.8765 23.6402 30.0012 23.2818 30H22.6691C22.3117 30 21.9993 29.8676 21.7317 29.6029C21.4642 29.3382 21.2916 29 21.214 28.5882Z" fill="white"/>
</g>
<defs>
<clipPath id="clip0_267_1435">
<rect width="30" height="30" fill="white"/>
</clipPath>
</defs>
</svg>
