<svg width="30" height="24" viewBox="0 0 30 24" fill="none" xmlns="http://www.w3.org/2000/svg">
<path d="M21.8196 6.32294C19.5989 6.32224 17.4309 6.94931 15.6053 8.12033C13.7797 9.29135 12.3836 10.9505 11.6036 12.8761L14.1586 13.7637C14.8335 12.1038 16.1157 10.7158 17.7818 9.8412C19.448 8.96663 21.3926 8.66096 23.277 8.97744C25.1614 9.29391 26.8663 10.2125 28.0948 11.5732C29.3232 12.9339 29.9974 14.6505 30 16.4241C30 18.4334 29.1381 20.3603 27.604 21.7811C26.0699 23.2018 23.9892 24 21.8196 24H8.18557C6.25394 24.0011 4.3842 23.3692 2.90741 22.2161C1.43063 21.063 0.442085 19.4631 0.116825 17.6998C-0.208435 15.9365 0.150572 14.1234 1.13028 12.5817C2.10998 11.04 3.64718 9.86906 5.46967 9.27627C5.35289 7.0952 6.11211 4.9513 7.60096 3.25789C9.08982 1.56449 11.2029 0.441471 13.5328 0.105349C15.8627 -0.230772 18.2445 0.243799 20.219 1.43757C22.1935 2.63134 23.6209 4.45979 24.226 6.57042C23.4363 6.40548 22.6292 6.32248 21.8196 6.32294Z" fill="white"/>
</svg>
