<svg width="30" height="30" viewBox="0 0 30 30" fill="none" xmlns="http://www.w3.org/2000/svg">
<path d="M27.5 4.9248L15 0.549805L2.5 4.9248V14.9998C2.5 20.1586 5.6675 23.7648 8.62 26.0036C10.4026 27.3416 12.3578 28.4327 14.4325 29.2473C14.5742 29.3006 14.7167 29.3515 14.86 29.3998L15 29.4498L15.1425 29.3998C15.4158 29.3049 15.6867 29.2032 15.955 29.0948C17.8872 28.2987 19.7102 27.26 21.38 26.0036C24.3337 23.7648 27.5 20.1586 27.5 14.9998V4.9248ZM13.7513 19.2686L8.45 13.9648L10.2175 12.1961L13.7525 15.7323L20.8237 8.66105L22.5925 10.4286L13.7513 19.2686Z" fill="white"/>
</svg>
