<svg width="1440" height="196" viewBox="0 0 1440 196" fill="none" xmlns="http://www.w3.org/2000/svg">
<path d="M90.5143 99.9998C70.7657 53.5998 21.9429 21.9998 0 11.9998V382H1440V0C1370.88 24 1381.03 84.6665 1394.74 112C1376.64 89.5997 1368 102.666 1365.94 112C1349.49 73.5998 1328.91 87.9998 1320.69 99.9998C1221.94 26.3997 1180.8 85.3331 1172.57 124C1126.49 71.1997 1080.69 102 1063.54 124C1019.11 24.7997 954.514 47.9999 927.771 72C884.983 20.8 830.4 39.9999 808.457 55.9998C678.446 -44.8002 604.8 33.9998 584.229 85.9998C546.377 87.5998 538.286 112 538.971 124C466.56 108 451.2 141.333 452.571 160C431.177 112 377.829 116 353.829 124C297.874 53.5998 222.171 73.9998 207.771 99.9998C186.377 90.3998 172.8 104 168.686 112C142.354 76.7998 105.6 89.3332 90.5143 99.9998Z" fill="url(#paint0_linear_228_185)"/>
<defs>
<linearGradient id="paint0_linear_228_185" x1="717.75" y1="-76" x2="728.418" y2="432.059" gradientUnits="userSpaceOnUse">
<stop stop-color="white"/>
<stop offset="1" stop-color="#FBFFFF"/>
</linearGradient>
</defs>
</svg>
