<svg width="56" height="56" viewBox="0 0 56 56" fill="none" xmlns="http://www.w3.org/2000/svg">
<rect x="1.5" y="1.5" width="53" height="53" rx="26.5" fill="#FBFBFB"/>
<rect x="1.5" y="1.5" width="53" height="53" rx="26.5" stroke="#294C3C" stroke-width="3"/>
<path d="M22.667 34.8999V21.0999C22.667 20.7222 22.8003 20.4053 23.067 20.1493C23.3337 19.8933 23.6448 19.7657 24.0003 19.7666C24.1114 19.7666 24.2283 19.7831 24.351 19.8159C24.4737 19.8488 24.5901 19.8991 24.7003 19.9666L35.567 26.8666C35.767 26.9999 35.9172 27.1666 36.0177 27.3666C36.1181 27.5666 36.1679 27.7777 36.167 27.9999C36.1661 28.2222 36.1163 28.4333 36.0177 28.6333C35.919 28.8333 35.7688 28.9999 35.567 29.1333L24.7003 36.0333C24.5892 36.0999 24.4728 36.1502 24.351 36.1839C24.2292 36.2177 24.1123 36.2342 24.0003 36.2333C23.6448 36.2333 23.3337 36.1053 23.067 35.8493C22.8003 35.5933 22.667 35.2768 22.667 34.8999Z" fill="#294C3C"/>
</svg>
