<svg width="56" height="56" viewBox="0 0 56 56" fill="none" xmlns="http://www.w3.org/2000/svg">
<rect x="1.5" y="1.5" width="53" height="53" rx="26.5" fill="#FBFBFB"/>
<rect x="1.5" y="1.5" width="53" height="53" rx="26.5" stroke="#294C3C" stroke-width="3"/>
<path d="M33.333 21.1001V34.9001C33.333 35.2778 33.1997 35.5947 32.933 35.8507C32.6663 36.1067 32.3552 36.2343 31.9997 36.2334C31.8886 36.2334 31.7717 36.2169 31.649 36.1841C31.5263 36.1512 31.4099 36.1009 31.2997 36.0334L20.433 29.1334C20.233 29.0001 20.0828 28.8334 19.9823 28.6334C19.8819 28.4334 19.8321 28.2223 19.833 28.0001C19.8339 27.7778 19.8837 27.5667 19.9823 27.3667C20.081 27.1667 20.2312 27.0001 20.433 26.8667L31.2997 19.9667C31.4108 19.9001 31.5272 19.8498 31.649 19.8161C31.7708 19.7823 31.8877 19.7658 31.9997 19.7667C32.3552 19.7667 32.6663 19.8947 32.933 20.1507C33.1997 20.4067 33.333 20.7232 33.333 21.1001Z" fill="#294C3C"/>
</svg>
