<svg width="20" height="20" viewBox="0 0 20 20" fill="none" xmlns="http://www.w3.org/2000/svg">
<path d="M9.69434 3.67773C9.80614 3.41138 10.1939 3.41138 10.3057 3.67773L10.3066 3.67871L11.8809 7.39551L11.999 7.67285L12.2988 7.69824L16.3242 8.04004L16.3271 8.04102C16.6151 8.06411 16.7392 8.42722 16.5146 8.62207V8.62305L13.4561 11.2725L13.2275 11.4697L13.2959 11.7637L14.2129 15.6973C14.2797 15.9851 13.9697 16.2087 13.7168 16.0557L10.2588 13.9639L10 13.8076L9.74219 13.9639L6.2832 16.0469L6.28223 16.0479C6.02935 16.2005 5.72019 15.9762 5.78711 15.6885L6.70312 11.7559L6.77246 11.4619L6.54395 11.2646L3.48535 8.61426C3.26033 8.41944 3.38466 8.05521 3.67285 8.03223H3.67578L7.7002 7.69043L8.00098 7.66504L8.11816 7.3877L9.69336 3.67969L9.69434 3.67773Z" fill="#EDC31E" stroke="#EDC31E"/>
</svg>
